<mxfile host="app.diagrams.net" modified="2023-11-25T19:43:41.143Z" agent="Mozilla/5.0 (Windows NT 10.0; Win64; x64) AppleWebKit/537.36 (KHTML, like Gecko) Chrome/119.0.0.0 Safari/537.36" etag="uv1_Tbvff-0Zux6LG95O" version="22.1.4" type="github">
  <diagram name="Page-1" id="yjzDLFUXkvLuyRtiumOQ">
    <mxGraphModel dx="794" dy="1564" grid="1" gridSize="10" guides="1" tooltips="1" connect="1" arrows="1" fold="1" page="1" pageScale="1" pageWidth="850" pageHeight="1100" math="0" shadow="0">
      <root>
        <mxCell id="0" />
        <mxCell id="1" parent="0" />
        <mxCell id="LDKh30-EaPT_GJ5UH9sB-2" style="edgeStyle=orthogonalEdgeStyle;rounded=0;orthogonalLoop=1;jettySize=auto;html=1;" edge="1" parent="1" source="LDKh30-EaPT_GJ5UH9sB-1" target="LDKh30-EaPT_GJ5UH9sB-3">
          <mxGeometry relative="1" as="geometry">
            <mxPoint x="300" y="120" as="targetPoint" />
          </mxGeometry>
        </mxCell>
        <mxCell id="LDKh30-EaPT_GJ5UH9sB-1" value="start" style="rounded=1;whiteSpace=wrap;html=1;" vertex="1" parent="1">
          <mxGeometry x="240" y="-20" width="120" height="60" as="geometry" />
        </mxCell>
        <mxCell id="LDKh30-EaPT_GJ5UH9sB-4" style="edgeStyle=orthogonalEdgeStyle;rounded=0;orthogonalLoop=1;jettySize=auto;html=1;" edge="1" parent="1" source="LDKh30-EaPT_GJ5UH9sB-3" target="LDKh30-EaPT_GJ5UH9sB-5">
          <mxGeometry relative="1" as="geometry">
            <mxPoint x="300" y="240" as="targetPoint" />
          </mxGeometry>
        </mxCell>
        <mxCell id="LDKh30-EaPT_GJ5UH9sB-3" value="n" style="shape=document;whiteSpace=wrap;html=1;boundedLbl=1;" vertex="1" parent="1">
          <mxGeometry x="240" y="140" width="120" height="70" as="geometry" />
        </mxCell>
        <mxCell id="LDKh30-EaPT_GJ5UH9sB-10" style="edgeStyle=orthogonalEdgeStyle;rounded=0;orthogonalLoop=1;jettySize=auto;html=1;" edge="1" parent="1" source="LDKh30-EaPT_GJ5UH9sB-5">
          <mxGeometry relative="1" as="geometry">
            <mxPoint x="295" y="400" as="targetPoint" />
          </mxGeometry>
        </mxCell>
        <mxCell id="LDKh30-EaPT_GJ5UH9sB-5" value="" style="shape=sumEllipse;perimeter=ellipsePerimeter;whiteSpace=wrap;html=1;backgroundOutline=1;" vertex="1" parent="1">
          <mxGeometry x="220" y="250" width="150" height="100" as="geometry" />
        </mxCell>
        <mxCell id="LDKh30-EaPT_GJ5UH9sB-6" value="i=1" style="text;html=1;strokeColor=none;fillColor=none;align=center;verticalAlign=middle;whiteSpace=wrap;rounded=0;" vertex="1" parent="1">
          <mxGeometry x="265" y="260" width="60" height="30" as="geometry" />
        </mxCell>
        <mxCell id="LDKh30-EaPT_GJ5UH9sB-14" style="edgeStyle=orthogonalEdgeStyle;rounded=0;orthogonalLoop=1;jettySize=auto;html=1;" edge="1" parent="1" source="LDKh30-EaPT_GJ5UH9sB-7">
          <mxGeometry relative="1" as="geometry">
            <mxPoint x="100" y="380" as="targetPoint" />
          </mxGeometry>
        </mxCell>
        <mxCell id="LDKh30-EaPT_GJ5UH9sB-7" value="i&amp;lt;=n" style="text;html=1;strokeColor=none;fillColor=none;align=center;verticalAlign=middle;whiteSpace=wrap;rounded=0;" vertex="1" parent="1">
          <mxGeometry x="220" y="285" width="60" height="30" as="geometry" />
        </mxCell>
        <mxCell id="LDKh30-EaPT_GJ5UH9sB-8" value="i++" style="text;html=1;strokeColor=none;fillColor=none;align=center;verticalAlign=middle;whiteSpace=wrap;rounded=0;" vertex="1" parent="1">
          <mxGeometry x="310" y="285" width="60" height="30" as="geometry" />
        </mxCell>
        <mxCell id="LDKh30-EaPT_GJ5UH9sB-12" style="edgeStyle=orthogonalEdgeStyle;rounded=0;orthogonalLoop=1;jettySize=auto;html=1;entryX=1;entryY=0.75;entryDx=0;entryDy=0;" edge="1" parent="1" source="LDKh30-EaPT_GJ5UH9sB-11" target="LDKh30-EaPT_GJ5UH9sB-8">
          <mxGeometry relative="1" as="geometry">
            <Array as="points">
              <mxPoint x="390" y="440" />
              <mxPoint x="390" y="308" />
            </Array>
          </mxGeometry>
        </mxCell>
        <mxCell id="LDKh30-EaPT_GJ5UH9sB-11" value="fact=fact*i" style="rounded=0;whiteSpace=wrap;html=1;" vertex="1" parent="1">
          <mxGeometry x="235" y="400" width="120" height="60" as="geometry" />
        </mxCell>
        <mxCell id="LDKh30-EaPT_GJ5UH9sB-13" value="fact=1" style="rounded=0;whiteSpace=wrap;html=1;" vertex="1" parent="1">
          <mxGeometry x="240" y="60" width="120" height="60" as="geometry" />
        </mxCell>
        <mxCell id="LDKh30-EaPT_GJ5UH9sB-15" value="fact" style="shape=document;whiteSpace=wrap;html=1;boundedLbl=1;" vertex="1" parent="1">
          <mxGeometry x="50" y="380" width="120" height="80" as="geometry" />
        </mxCell>
        <mxCell id="LDKh30-EaPT_GJ5UH9sB-16" style="edgeStyle=orthogonalEdgeStyle;rounded=0;orthogonalLoop=1;jettySize=auto;html=1;" edge="1" parent="1" source="LDKh30-EaPT_GJ5UH9sB-17" target="LDKh30-EaPT_GJ5UH9sB-19">
          <mxGeometry relative="1" as="geometry">
            <mxPoint x="810" y="120" as="targetPoint" />
          </mxGeometry>
        </mxCell>
        <mxCell id="LDKh30-EaPT_GJ5UH9sB-17" value="start" style="rounded=1;whiteSpace=wrap;html=1;" vertex="1" parent="1">
          <mxGeometry x="750" y="-20" width="120" height="60" as="geometry" />
        </mxCell>
        <mxCell id="LDKh30-EaPT_GJ5UH9sB-18" style="edgeStyle=orthogonalEdgeStyle;rounded=0;orthogonalLoop=1;jettySize=auto;html=1;" edge="1" parent="1" source="LDKh30-EaPT_GJ5UH9sB-19">
          <mxGeometry relative="1" as="geometry">
            <mxPoint x="805" y="250" as="targetPoint" />
          </mxGeometry>
        </mxCell>
        <mxCell id="LDKh30-EaPT_GJ5UH9sB-19" value="n" style="shape=document;whiteSpace=wrap;html=1;boundedLbl=1;" vertex="1" parent="1">
          <mxGeometry x="750" y="70" width="120" height="70" as="geometry" />
        </mxCell>
        <mxCell id="LDKh30-EaPT_GJ5UH9sB-20" style="edgeStyle=orthogonalEdgeStyle;rounded=0;orthogonalLoop=1;jettySize=auto;html=1;" edge="1" parent="1">
          <mxGeometry relative="1" as="geometry">
            <mxPoint x="805" y="400" as="targetPoint" />
            <mxPoint x="805" y="350" as="sourcePoint" />
          </mxGeometry>
        </mxCell>
        <mxCell id="LDKh30-EaPT_GJ5UH9sB-23" style="edgeStyle=orthogonalEdgeStyle;rounded=0;orthogonalLoop=1;jettySize=auto;html=1;" edge="1" parent="1">
          <mxGeometry relative="1" as="geometry">
            <mxPoint x="610" y="380" as="targetPoint" />
            <mxPoint x="730" y="300" as="sourcePoint" />
          </mxGeometry>
        </mxCell>
        <mxCell id="LDKh30-EaPT_GJ5UH9sB-26" style="edgeStyle=orthogonalEdgeStyle;rounded=0;orthogonalLoop=1;jettySize=auto;html=1;entryX=1;entryY=0.75;entryDx=0;entryDy=0;" edge="1" parent="1" source="LDKh30-EaPT_GJ5UH9sB-27">
          <mxGeometry relative="1" as="geometry">
            <Array as="points">
              <mxPoint x="900" y="440" />
              <mxPoint x="900" y="308" />
            </Array>
            <mxPoint x="880" y="307.5" as="targetPoint" />
          </mxGeometry>
        </mxCell>
        <mxCell id="LDKh30-EaPT_GJ5UH9sB-27" value="fact=fact*i&lt;br&gt;i--" style="rounded=0;whiteSpace=wrap;html=1;" vertex="1" parent="1">
          <mxGeometry x="745" y="400" width="120" height="60" as="geometry" />
        </mxCell>
        <mxCell id="LDKh30-EaPT_GJ5UH9sB-28" value="fact=1&lt;br&gt;i=n" style="rounded=0;whiteSpace=wrap;html=1;" vertex="1" parent="1">
          <mxGeometry x="750" y="160" width="120" height="60" as="geometry" />
        </mxCell>
        <mxCell id="LDKh30-EaPT_GJ5UH9sB-31" style="edgeStyle=orthogonalEdgeStyle;rounded=0;orthogonalLoop=1;jettySize=auto;html=1;" edge="1" parent="1" source="LDKh30-EaPT_GJ5UH9sB-29" target="LDKh30-EaPT_GJ5UH9sB-32">
          <mxGeometry relative="1" as="geometry">
            <mxPoint x="620" y="490" as="targetPoint" />
          </mxGeometry>
        </mxCell>
        <mxCell id="LDKh30-EaPT_GJ5UH9sB-29" value="fact" style="shape=document;whiteSpace=wrap;html=1;boundedLbl=1;" vertex="1" parent="1">
          <mxGeometry x="560" y="380" width="120" height="70" as="geometry" />
        </mxCell>
        <mxCell id="LDKh30-EaPT_GJ5UH9sB-30" value="i&amp;gt;0" style="ellipse;whiteSpace=wrap;html=1;aspect=fixed;" vertex="1" parent="1">
          <mxGeometry x="750" y="250" width="115" height="115" as="geometry" />
        </mxCell>
        <mxCell id="LDKh30-EaPT_GJ5UH9sB-32" value="stop" style="rounded=1;whiteSpace=wrap;html=1;" vertex="1" parent="1">
          <mxGeometry x="560" y="500" width="120" height="60" as="geometry" />
        </mxCell>
      </root>
    </mxGraphModel>
  </diagram>
</mxfile>
